# xmcd
#
# Track frame offsets:
#	150
#	12915
#	35574
#	50443
#	64440
#	90805
#	102545
#	128781
#	145333
#	169792
#	202711
#
# Disc length: 3131 seconds
#
# Revision: 1
# Processed by: cddbd v1.5.2PL0 Copyright (c) Steve Scherf et al.
# Submitted via: audiograbber 1.83.01
#
DISCID=910c390b
DTITLE=Gary Moore - Close As You Get
DYEAR=2007
DGENRE=
TTITLE0=If the devil made whisky 
TTITLE1=Trouble at home 
TTITLE2=Thirty days 
TTITLE3=Hard times 
TTITLE4=Have you heard 
TTITLE5=Eyesight to the blind
TTITLE6=Evenin' 
TTITLE7=Nowhere fast 
TTITLE8=Checkin' up on my baby
TTITLE9=I had a dream 
TTITLE10=Sundown 
EXTD=
EXTT0=
EXTT1=
EXTT2=
EXTT3=
EXTT4=
EXTT5=
EXTT6=
EXTT7=
EXTT8=
EXTT9=
EXTT10=
PLAYORDER=
